@startuml
'https://plantuml.com/class-diagram

class TransfersLoadJob {
 - transfersService : TransfersService

 - reportPeriodService : ReportPeriodService

 - catalogsService : BankCatalogsService

 - authenticationService : UserAuthenticationService

 - remoteClient : RemoteFilesClient
}

abstract class AbstractList
abstract AbstractCollection
interface List
interface Collection

List <|-- AbstractList
Collection <|-- AbstractCollection

Collection <|- List
AbstractCollection <|- AbstractList
AbstractList <|-- ArrayList

class ArrayList {
Object[] elementData
size()
}

enum TimeUnit {
DAYS
HOURS
MINUTES
}

@enduml